<svg xmlns="http://www.w3.org/2000/svg" width="169" height="89.56" viewBox="0 0 169 89.56">
  <g id="bulat-bike" transform="translate(-279 -223.592)">
    <path id="Path_319" data-name="Path 319" d="M378.356,536.973a18.383,18.383,0,1,1-18.383,18.383,18.38,18.38,0,0,1,18.383-18.383m0-6.973a25.317,25.317,0,0,0-17.94,7.417,24.84,24.84,0,0,0-5.426,8.063,25.38,25.38,0,0,0,5.426,27.816,24.84,24.84,0,0,0,8.063,5.426A25.38,25.38,0,0,0,396.3,573.3a24.841,24.841,0,0,0,5.426-8.063,25.381,25.381,0,0,0-5.426-27.816,24.841,24.841,0,0,0-8.063-5.426,25.312,25.312,0,0,0-9.876-1.99Z" transform="translate(-64.618 -267.561)"/>
    <g id="Group_262" data-name="Group 262" transform="translate(404.451 268.461)">
      <path id="Path_320" data-name="Path 320" d="M1410.817,587.643a.314.314,0,0,1-.317-.317v-9.509a.317.317,0,1,1,.634,0v9.509A.314.314,0,0,1,1410.817,587.643Z" transform="translate(-1392.497 -577.5)"/>
      <path id="Path_321" data-name="Path 321" d="M1388.041,589.279a.336.336,0,0,1-.317-.266l-1.648-9.369a.316.316,0,0,1,.621-.114l1.648,9.369a.319.319,0,0,1-.254.368A.077.077,0,0,1,1388.041,589.279Z" transform="translate(-1371.166 -579.047)"/>
      <path id="Path_322" data-name="Path 322" d="M1365.908,595.005a.3.3,0,0,1-.291-.2l-3.258-8.938a.317.317,0,1,1,.6-.215l3.258,8.938a.315.315,0,0,1-.19.406A.351.351,0,0,1,1365.908,595.005Z" transform="translate(-1350.441 -584.431)"/>
      <path id="Path_323" data-name="Path 323" d="M1345.132,604.336a.305.305,0,0,1-.279-.165l-4.754-8.241a.315.315,0,1,1,.545-.317l4.755,8.241a.313.313,0,0,1-.114.431A.243.243,0,0,1,1345.132,604.336Z" transform="translate(-1330.984 -593.179)"/>
      <path id="Path_324" data-name="Path 324" d="M1326.221,617.346a.312.312,0,0,1-.241-.114l-6.111-7.29a.307.307,0,0,1,.038-.444.319.319,0,0,1,.444.038l6.111,7.29a.307.307,0,0,1-.038.444A.288.288,0,0,1,1326.221,617.346Z" transform="translate(-1313.289 -605.378)"/>
      <path id="Path_325" data-name="Path 325" d="M1309.9,633.238a.311.311,0,0,1-.2-.076l-7.29-6.111a.315.315,0,0,1,.406-.482l7.29,6.111a.308.308,0,0,1,.038.444A.312.312,0,0,1,1309.9,633.238Z" transform="translate(-1298.008 -620.281)"/>
      <path id="Path_326" data-name="Path 326" d="M1296.606,651.937a.3.3,0,0,1-.152-.038l-8.241-4.754a.315.315,0,0,1,.317-.545l8.241,4.754a.313.313,0,0,1,.114.431A.349.349,0,0,1,1296.606,651.937Z" transform="translate(-1285.576 -637.801)"/>
      <path id="Path_327" data-name="Path 327" d="M1286.7,672.338a.188.188,0,0,1-.114-.025l-8.938-3.258a.317.317,0,1,1,.216-.6l8.938,3.258a.315.315,0,0,1,.19.406A.308.308,0,0,1,1286.7,672.338Z" transform="translate(-1276.305 -656.909)"/>
      <path id="Path_328" data-name="Path 328" d="M1280.623,694.419h-.051l-9.369-1.648a.316.316,0,0,1,.114-.621l9.369,1.648a.3.3,0,0,1,.253.368A.335.335,0,0,1,1280.623,694.419Z" transform="translate(-1270.633 -677.608)"/>
      <path id="Path_329" data-name="Path 329" d="M1278.326,717.134h-9.509a.317.317,0,0,1,0-.634h9.509a.317.317,0,0,1,0,.634Z" transform="translate(-1268.5 -698.877)"/>
      <path id="Path_330" data-name="Path 330" d="M1270.693,730.158a.336.336,0,0,1-.317-.266.319.319,0,0,1,.254-.368l9.369-1.648a.316.316,0,0,1,.114.621l-9.369,1.648A.077.077,0,0,1,1270.693,730.158Z" transform="translate(-1270.135 -708.808)"/>
      <path id="Path_331" data-name="Path 331" d="M1276.85,742.825a.3.3,0,0,1-.292-.2.315.315,0,0,1,.19-.406l8.938-3.258a.317.317,0,0,1,.215.6l-8.938,3.258A.436.436,0,0,1,1276.85,742.825Z" transform="translate(-1275.519 -718.47)"/>
      <path id="Path_332" data-name="Path 332" d="M1286.878,754.849a.3.3,0,0,1-.279-.165.313.313,0,0,1,.114-.431l8.241-4.754a.315.315,0,1,1,.317.545l-8.241,4.754A.36.36,0,0,1,1286.878,754.849Z" transform="translate(-1284.267 -727.655)"/>
      <path id="Path_333" data-name="Path 333" d="M1300.71,765.738a.312.312,0,0,1-.241-.114.307.307,0,0,1,.038-.444l7.29-6.111a.315.315,0,0,1,.406.482l-7.29,6.111A.311.311,0,0,1,1300.71,765.738Z" transform="translate(-1296.349 -735.983)"/>
      <path id="Path_334" data-name="Path 334" d="M1317.811,775.117a.317.317,0,0,1-.241-.52l6.111-7.29a.315.315,0,0,1,.482.406l-6.111,7.29A.278.278,0,0,1,1317.811,775.117Z" transform="translate(-1311.281 -743.143)"/>
      <path id="Path_335" data-name="Path 335" d="M1337.766,782.823a.3.3,0,0,1-.152-.038.312.312,0,0,1-.114-.431l4.754-8.241a.315.315,0,0,1,.545.317l-4.754,8.241A.3.3,0,0,1,1337.766,782.823Z" transform="translate(-1328.714 -749.048)"/>
      <path id="Path_336" data-name="Path 336" d="M1359.763,788.518a.188.188,0,0,1-.114-.025.315.315,0,0,1-.19-.406l3.258-8.938a.317.317,0,0,1,.6.216l-3.258,8.938A.287.287,0,0,1,1359.763,788.518Z" transform="translate(-1347.909 -753.399)"/>
      <path id="Path_337" data-name="Path 337" d="M1383.454,792.24h-.051a.3.3,0,0,1-.254-.368l1.648-9.369a.316.316,0,1,1,.621.114l-1.648,9.369A.314.314,0,0,1,1383.454,792.24Z" transform="translate(-1368.608 -756.285)"/>
      <path id="Path_338" data-name="Path 338" d="M1407.817,793.642a.314.314,0,0,1-.317-.317v-9.509a.317.317,0,0,1,.634,0v9.509A.314.314,0,0,1,1407.817,793.642Z" transform="translate(-1389.877 -757.383)"/>
      <path id="Path_339" data-name="Path 339" d="M1420.841,792.679a.336.336,0,0,1-.317-.266l-1.648-9.369a.316.316,0,1,1,.621-.114l1.648,9.369a.319.319,0,0,1-.253.368C1420.879,792.679,1420.866,792.679,1420.841,792.679Z" transform="translate(-1399.808 -756.66)"/>
      <path id="Path_340" data-name="Path 340" d="M1433.508,789.605a.3.3,0,0,1-.292-.2l-3.258-8.938a.317.317,0,1,1,.6-.216l3.258,8.938a.315.315,0,0,1-.19.406A.353.353,0,0,1,1433.508,789.605Z" transform="translate(-1409.47 -754.36)"/>
      <path id="Path_341" data-name="Path 341" d="M1445.533,784.236a.305.305,0,0,1-.279-.165l-4.754-8.241a.315.315,0,1,1,.545-.317l4.755,8.241a.313.313,0,0,1-.114.431A.243.243,0,0,1,1445.533,784.236Z" transform="translate(-1418.655 -750.271)"/>
      <path id="Path_342" data-name="Path 342" d="M1456.421,777.017a.313.313,0,0,1-.241-.114l-6.111-7.29a.315.315,0,0,1,.482-.406l6.111,7.29a.307.307,0,0,1-.038.444A.336.336,0,0,1,1456.421,777.017Z" transform="translate(-1426.983 -744.802)"/>
      <path id="Path_343" data-name="Path 343" d="M1465.8,768.038a.31.31,0,0,1-.2-.076l-7.29-6.111a.315.315,0,1,1,.406-.482l7.29,6.111a.308.308,0,0,1,.038.444A.313.313,0,0,1,1465.8,768.038Z" transform="translate(-1434.143 -737.991)"/>
      <path id="Path_344" data-name="Path 344" d="M1473.506,757.437a.3.3,0,0,1-.152-.038l-8.241-4.754a.315.315,0,1,1,.317-.545l8.241,4.754a.313.313,0,0,1,.114.431A.318.318,0,0,1,1473.506,757.437Z" transform="translate(-1440.049 -729.925)"/>
      <path id="Path_345" data-name="Path 345" d="M1479.2,745.638a.189.189,0,0,1-.114-.025l-8.938-3.258a.317.317,0,0,1,.215-.6l8.938,3.258a.321.321,0,0,1-.1.621Z" transform="translate(-1444.399 -720.915)"/>
      <path id="Path_346" data-name="Path 346" d="M1482.923,733.219h-.051l-9.369-1.648a.316.316,0,1,1,.114-.621l9.369,1.648a.3.3,0,0,1,.253.368A.327.327,0,0,1,1482.923,733.219Z" transform="translate(-1447.285 -711.489)"/>
      <path id="Path_347" data-name="Path 347" d="M1484.326,720.134h-9.509a.317.317,0,1,1,0-.634h9.509a.317.317,0,1,1,0,.634Z" transform="translate(-1448.383 -701.497)"/>
      <path id="Path_348" data-name="Path 348" d="M1474.093,697.358a.337.337,0,0,1-.317-.266.319.319,0,0,1,.254-.368l9.369-1.648a.316.316,0,1,1,.114.621l-9.369,1.648A.076.076,0,0,1,1474.093,697.358Z" transform="translate(-1447.747 -680.166)"/>
      <path id="Path_349" data-name="Path 349" d="M1471.45,675.225a.3.3,0,0,1-.292-.2.315.315,0,0,1,.19-.406l8.938-3.258a.317.317,0,0,1,.215.6l-8.938,3.258A.434.434,0,0,1,1471.45,675.225Z" transform="translate(-1445.447 -659.441)"/>
      <path id="Path_350" data-name="Path 350" d="M1466.778,654.349a.305.305,0,0,1-.279-.165.313.313,0,0,1,.114-.431l8.241-4.754a.315.315,0,0,1,.317.545l-8.241,4.754A.243.243,0,0,1,1466.778,654.349Z" transform="translate(-1441.358 -639.896)"/>
      <path id="Path_351" data-name="Path 351" d="M1460.41,635.538a.312.312,0,0,1-.241-.114.307.307,0,0,1,.038-.444l7.29-6.111a.315.315,0,1,1,.406.482l-7.29,6.111A.242.242,0,0,1,1460.41,635.538Z" transform="translate(-1435.802 -622.289)"/>
      <path id="Path_352" data-name="Path 352" d="M1452.61,619.217a.317.317,0,0,1-.241-.52l6.111-7.29a.315.315,0,0,1,.482.406l-6.111,7.29A.312.312,0,0,1,1452.61,619.217Z" transform="translate(-1428.991 -607.008)"/>
      <path id="Path_353" data-name="Path 353" d="M1443.366,605.923a.3.3,0,0,1-.152-.038.313.313,0,0,1-.114-.431l4.754-8.241a.315.315,0,1,1,.545.317l-4.754,8.241A.3.3,0,0,1,1443.366,605.923Z" transform="translate(-1420.925 -594.576)"/>
      <path id="Path_354" data-name="Path 354" d="M1433.063,596.018a.188.188,0,0,1-.114-.025.315.315,0,0,1-.19-.406l3.258-8.938a.317.317,0,1,1,.6.215l-3.258,8.938A.312.312,0,0,1,1433.063,596.018Z" transform="translate(-1411.916 -585.305)"/>
      <path id="Path_355" data-name="Path 355" d="M1422.254,589.94h-.051a.3.3,0,0,1-.254-.368l1.648-9.369a.316.316,0,1,1,.621.114l-1.648,9.369A.351.351,0,0,1,1422.254,589.94Z" transform="translate(-1402.489 -579.633)"/>
    </g>
    <g id="Group_263" data-name="Group 263" transform="translate(297.13 270.933)">
      <path id="Path_356" data-name="Path 356" d="M553.892,606.395a.287.287,0,0,1-.292-.292v-8.811a.292.292,0,0,1,.583,0V606.1A.287.287,0,0,1,553.892,606.395Z" transform="translate(-536.916 -597)"/>
      <path id="Path_357" data-name="Path 357" d="M532.786,608.028a.3.3,0,0,1-.292-.241l-1.521-8.672a.3.3,0,1,1,.583-.1l1.534,8.672a.292.292,0,0,1-.241.342Z" transform="translate(-517.154 -598.545)"/>
      <path id="Path_358" data-name="Path 358" d="M512.189,613.242a.317.317,0,0,1-.279-.19l-3.017-8.279a.3.3,0,0,1,.558-.2l3.017,8.279a.307.307,0,0,1-.177.38A.248.248,0,0,1,512.189,613.242Z" transform="translate(-497.862 -603.441)"/>
      <path id="Path_359" data-name="Path 359" d="M493.088,621.925a.279.279,0,0,1-.254-.152l-4.4-7.632a.3.3,0,0,1,.507-.3l4.4,7.632a.3.3,0,0,1-.1.406A.244.244,0,0,1,493.088,621.925Z" transform="translate(-479.978 -611.579)"/>
      <path id="Path_360" data-name="Path 360" d="M475.53,633.9a.318.318,0,0,1-.228-.1l-5.667-6.745a.3.3,0,0,1,.456-.38l5.667,6.745a.3.3,0,0,1-.038.418A.287.287,0,0,1,475.53,633.9Z" transform="translate(-463.536 -622.818)"/>
      <path id="Path_361" data-name="Path 361" d="M460.407,648.621a.342.342,0,0,1-.19-.063l-6.745-5.667a.3.3,0,0,1,.38-.456L460.6,648.1a.3.3,0,0,1,.038.418A.275.275,0,0,1,460.407,648.621Z" transform="translate(-449.39 -636.615)"/>
      <path id="Path_362" data-name="Path 362" d="M447.982,665.94a.337.337,0,0,1-.152-.038l-7.632-4.4a.3.3,0,0,1,.3-.507l7.632,4.4a.293.293,0,0,1-.152.545Z" transform="translate(-437.763 -652.844)"/>
      <path id="Path_363" data-name="Path 363" d="M438.85,684.98a.28.28,0,0,1-.1-.013l-8.279-3.017a.3.3,0,1,1,.2-.558l8.279,3.017a.3.3,0,0,1,.177.38A.29.29,0,0,1,438.85,684.98Z" transform="translate(-429.227 -670.679)"/>
      <path id="Path_364" data-name="Path 364" d="M433.237,705.291h-.051l-8.672-1.534a.3.3,0,0,1,.1-.583l8.672,1.534a.292.292,0,0,1,.241.342A.3.3,0,0,1,433.237,705.291Z" transform="translate(-423.982 -689.709)"/>
      <path id="Path_365" data-name="Path 365" d="M431.1,726.383h-8.811a.292.292,0,1,1,0-.583H431.1a.292.292,0,1,1,0,.583Z" transform="translate(-422 -709.471)"/>
      <path id="Path_366" data-name="Path 366" d="M424.065,738.491a.3.3,0,0,1-.292-.241.292.292,0,0,1,.241-.342l8.672-1.534a.3.3,0,0,1,.1.583l-8.672,1.521C424.09,738.478,424.078,738.491,424.065,738.491Z" transform="translate(-423.545 -718.7)"/>
      <path id="Path_367" data-name="Path 367" d="M429.671,750.18a.317.317,0,0,1-.279-.19.307.307,0,0,1,.178-.38l8.279-3.017a.3.3,0,0,1,.2.558l-8.279,3.017A.278.278,0,0,1,429.671,750.18Z" transform="translate(-428.441 -727.613)"/>
      <path id="Path_368" data-name="Path 368" d="M439.088,761.292a.279.279,0,0,1-.254-.152.305.305,0,0,1,.1-.406l7.632-4.4a.3.3,0,0,1,.3.507l-7.632,4.4A.243.243,0,0,1,439.088,761.292Z" transform="translate(-436.667 -736.1)"/>
      <path id="Path_369" data-name="Path 369" d="M451.863,771.321a.318.318,0,0,1-.228-.1.3.3,0,0,1,.038-.418l6.745-5.667a.3.3,0,0,1,.38.456l-6.745,5.667A.287.287,0,0,1,451.863,771.321Z" transform="translate(-447.818 -743.759)"/>
      <path id="Path_370" data-name="Path 370" d="M467.762,780.1a.342.342,0,0,1-.19-.063.3.3,0,0,1-.038-.418l5.667-6.745a.3.3,0,1,1,.456.38L467.991,780A.292.292,0,0,1,467.762,780.1Z" transform="translate(-461.702 -750.483)"/>
      <path id="Path_371" data-name="Path 371" d="M486.149,787.273a.338.338,0,0,1-.152-.038.29.29,0,0,1-.1-.406l4.4-7.632a.3.3,0,1,1,.507.3l-4.4,7.632A.324.324,0,0,1,486.149,787.273Z" transform="translate(-477.757 -755.971)"/>
      <path id="Path_372" data-name="Path 372" d="M506.671,792.642a.279.279,0,0,1-.1-.013.3.3,0,0,1-.177-.38l3.017-8.279a.3.3,0,1,1,.558.2l-3.017,8.279A.316.316,0,0,1,506.671,792.642Z" transform="translate(-495.679 -760.097)"/>
      <path id="Path_373" data-name="Path 373" d="M528.465,796.028h-.051a.292.292,0,0,1-.241-.342l1.534-8.672a.3.3,0,1,1,.583.1l-1.534,8.672A.3.3,0,0,1,528.465,796.028Z" transform="translate(-514.709 -762.71)"/>
      <path id="Path_374" data-name="Path 374" d="M551.092,797.295A.287.287,0,0,1,550.8,797v-8.811a.292.292,0,0,1,.583,0V797A.287.287,0,0,1,551.092,797.295Z" transform="translate(-534.47 -763.697)"/>
      <path id="Path_375" data-name="Path 375" d="M563.1,796.528a.3.3,0,0,1-.292-.241l-1.534-8.672a.3.3,0,1,1,.583-.1l1.534,8.672a.292.292,0,0,1-.241.342Z" transform="translate(-543.613 -763.147)"/>
      <path id="Path_376" data-name="Path 376" d="M574.889,793.542a.317.317,0,0,1-.279-.19l-3.017-8.279a.3.3,0,1,1,.558-.2l3.017,8.279a.307.307,0,0,1-.177.38A.245.245,0,0,1,574.889,793.542Z" transform="translate(-552.613 -760.883)"/>
      <path id="Path_377" data-name="Path 377" d="M586.088,788.625a.279.279,0,0,1-.253-.152l-4.4-7.632a.3.3,0,1,1,.507-.3l4.4,7.632a.3.3,0,0,1-.1.406A.243.243,0,0,1,586.088,788.625Z" transform="translate(-561.188 -757.145)"/>
      <path id="Path_378" data-name="Path 378" d="M596.03,781.9a.317.317,0,0,1-.228-.1l-5.667-6.745a.3.3,0,1,1,.456-.38l5.667,6.745a.3.3,0,0,1-.038.418A.267.267,0,0,1,596.03,781.9Z" transform="translate(-568.759 -752.055)"/>
      <path id="Path_379" data-name="Path 379" d="M604.807,773.521a.342.342,0,0,1-.19-.063l-6.745-5.667a.3.3,0,0,1,.38-.456L605,773a.3.3,0,0,1,.038.418A.318.318,0,0,1,604.807,773.521Z" transform="translate(-575.483 -745.68)"/>
      <path id="Path_380" data-name="Path 380" d="M611.882,763.74a.338.338,0,0,1-.152-.038l-7.632-4.4a.3.3,0,1,1,.3-.507l7.632,4.4a.293.293,0,0,1-.152.545Z" transform="translate(-580.884 -738.245)"/>
      <path id="Path_381" data-name="Path 381" d="M617.35,752.78a.279.279,0,0,1-.1-.013l-8.279-3.017a.3.3,0,1,1,.2-.558l8.279,3.017a.3.3,0,0,1,.177.38A.3.3,0,0,1,617.35,752.78Z" transform="translate(-585.097 -729.883)"/>
      <path id="Path_382" data-name="Path 382" d="M620.737,741.191h-.051l-8.672-1.534a.3.3,0,1,1,.1-.583l8.672,1.534a.292.292,0,0,1,.241.342A.309.309,0,0,1,620.737,741.191Z" transform="translate(-587.71 -721.058)"/>
      <path id="Path_383" data-name="Path 383" d="M622,729.183h-8.811a.292.292,0,0,1,0-.583H622a.292.292,0,0,1,0,.583Z" transform="translate(-588.697 -711.916)"/>
      <path id="Path_384" data-name="Path 384" d="M612.465,707.991a.3.3,0,0,1-.292-.241.292.292,0,0,1,.241-.342l8.672-1.534a.3.3,0,1,1,.1.583l-8.672,1.534Z" transform="translate(-588.059 -692.067)"/>
      <path id="Path_385" data-name="Path 385" d="M609.971,687.58a.316.316,0,0,1-.279-.19.307.307,0,0,1,.177-.38l8.279-3.017a.3.3,0,1,1,.2.558l-8.279,3.017C610.035,687.568,610.009,687.58,609.971,687.58Z" transform="translate(-585.883 -672.95)"/>
      <path id="Path_386" data-name="Path 386" d="M605.788,668.292a.279.279,0,0,1-.254-.152.305.305,0,0,1,.1-.406l7.632-4.4a.3.3,0,0,1,.3.507l-7.632,4.4A.3.3,0,0,1,605.788,668.292Z" transform="translate(-582.232 -654.891)"/>
      <path id="Path_387" data-name="Path 387" d="M599.863,650.821a.318.318,0,0,1-.228-.1.3.3,0,0,1,.038-.418l6.745-5.667a.3.3,0,1,1,.38.456l-6.745,5.667A.378.378,0,0,1,599.863,650.821Z" transform="translate(-577.055 -638.536)"/>
      <path id="Path_388" data-name="Path 388" d="M592.563,635.7a.342.342,0,0,1-.19-.063.3.3,0,0,1-.038-.418L598,628.472a.3.3,0,0,1,.456.38l-5.667,6.745A.341.341,0,0,1,592.563,635.7Z" transform="translate(-570.68 -624.39)"/>
      <path id="Path_389" data-name="Path 389" d="M583.949,623.373a.338.338,0,0,1-.152-.038.291.291,0,0,1-.1-.406l4.4-7.632a.3.3,0,1,1,.507.3l-4.4,7.632A.324.324,0,0,1,583.949,623.373Z" transform="translate(-563.157 -612.85)"/>
      <path id="Path_390" data-name="Path 390" d="M574.571,614.242a.279.279,0,0,1-.1-.013.3.3,0,0,1-.178-.38l3.017-8.279a.3.3,0,1,1,.558.2l-3.017,8.279A.316.316,0,0,1,574.571,614.242Z" transform="translate(-554.971 -604.315)"/>
      <path id="Path_391" data-name="Path 391" d="M564.365,608.528h-.051a.292.292,0,0,1-.241-.342l1.534-8.672a.3.3,0,1,1,.583.1l-1.534,8.672A.3.3,0,0,1,564.365,608.528Z" transform="translate(-546.058 -598.982)"/>
    </g>
    <path id="Path_392" data-name="Path 392" d="M384.722,540.973a17.749,17.749,0,1,1-17.749,17.749,17.753,17.753,0,0,1,17.749-17.749m0-6.973a24.63,24.63,0,1,0,9.623,1.94,24.758,24.758,0,0,0-9.623-1.94Z" transform="translate(-70.731 -271.054)"/>
    <path id="Path_393" data-name="Path 393" d="M1237.356,528.339a19.017,19.017,0,1,1-19.017,19.017,19.024,19.024,0,0,1,19.017-19.017m0-6.339a25.317,25.317,0,0,0-17.939,7.417,24.977,24.977,0,0,0-5.426,8.063,25.381,25.381,0,0,0,5.426,27.816,24.973,24.973,0,0,0,8.063,5.426A25.38,25.38,0,0,0,1255.3,565.3a24.978,24.978,0,0,0,5.426-8.063,25.38,25.38,0,0,0-5.426-27.816,24.979,24.979,0,0,0-8.063-5.426,25.316,25.316,0,0,0-9.877-1.99Z" transform="translate(-814.713 -260.576)"/>
    <path id="Path_394" data-name="Path 394" d="M501.791,728.214V728.1a.9.9,0,0,0-.025.317l.038.253C501.791,728.518,501.791,728.366,501.791,728.214Z" transform="translate(-194.519 -440.546)" fill="#515151"/>
    <path id="Path_395" data-name="Path 395" d="M445.092,268.334l6.085-3.169c-10.967-8.849-21.921-6.935-28.386-4.412l-7.86-15.9.241-.1h2.789c5.452-1.9,3.55-11.157,3.55-11.157l2.536-3.17-4.311-.127-1.014-.761-5.769.063-1.648-1.521h-1.648l-2.46,1.23a6.5,6.5,0,0,0,.076-1.559l-.976-3.233a1.1,1.1,0,0,0-.811-.748l-.786-.152a1.311,1.311,0,0,0-.925.152l-1.052.6a.954.954,0,0,0-.482.926v.013a.113.113,0,0,1-.063.1l-.127.063a.176.176,0,0,1-.114,0l-.71-.444a2.581,2.581,0,0,0-1.382-.406h-.418a2.333,2.333,0,0,0-1.509.558l-.025.025a.486.486,0,0,1-.469.1l-3.689-1.192a1.741,1.741,0,0,0-.723-.076l-.254.025a1.737,1.737,0,0,0-1.5,1.179,1.5,1.5,0,0,0-.025.887,1.689,1.689,0,0,0,1.268,1.179l.406.089a.857.857,0,0,0,.177.025l3.093.342a.263.263,0,0,1,.241.266.26.26,0,0,1-.266.266H392.4a.7.7,0,0,0-.545.254,1.45,1.45,0,0,0-.051,1.952,1.015,1.015,0,0,0,.8.406h3.525a1.936,1.936,0,0,1,1.1.355l.558.406c.406.292.887,1.2,1.369,1.534l-1.471.672,1.395,2.028,3.677,1.775.127.634-2.916,1.014c7.227,6.339.127,13.439.127,13.439l1.395.254-1.673,9.128a10.671,10.671,0,0,0-1.623-.634,3.2,3.2,0,0,0-.887,2.662l1.521.634q.228.133.418.266l-3.715,12.285h-2.688a14.66,14.66,0,0,0-.3-1.445l-1.141-4.488a.647.647,0,0,0-.609-.482h-9.166a.642.642,0,0,0-.634.621l-.038,1.864a.528.528,0,0,1-.507.52l-2.472.127A2.086,2.086,0,0,0,376,276.156v.215a.735.735,0,0,1-.6.723,42.084,42.084,0,0,1-4.222.52,8.194,8.194,0,0,0-3.246.837,5.307,5.307,0,0,0,.368,9.534c.063.025.114.051.165.076a1.242,1.242,0,0,1,.685.723,2.666,2.666,0,0,0,1.369,1.433,3.121,3.121,0,0,0,1.395.317l9.192-.114a3.245,3.245,0,0,1,1.648.444.549.549,0,0,0,.089.051l-20.868-.1c-.355-.241-.887-.6-1.559-1.052,2.726-5.591,1.027-11.892.152-14.39l3.41-2.117a.618.618,0,0,0-.647-1.052l-14.948,9.293c-5.312-3.715-10.536-7.493-12.488-9.28-1.864-1.712-2.193-3.385-1-4.983a4.792,4.792,0,0,1,2.1-1.572l1.483-.583,2.472-.038-3.968,1.686a2.9,2.9,0,0,0-1.458,1.344,2.635,2.635,0,0,0-.266,1.559,2.891,2.891,0,0,0,1.318,2.041c2.092,1.344,8.824,5.667,10.244,6.631,1.686,1.128,2.574,0,2.574,0,4.146-5.439,2.688-12.8,2.016-15.062s-3.588-1.128-3.588-1.128l-3.753,1.6c-.152-.165-.355-.368-.6-.6l11.322-4.425a.618.618,0,1,0-.444-1.154L342.437,262.2c-2.777-2.257-8.469-5.642-17.6-5.642-13.6,0-29.882,10.066-30.973,32.317a.507.507,0,0,0,.507.533c.862-.013,2.713-.494,5.173-3.854a4.651,4.651,0,0,0,.8-1.813c.621-3.106,3.3-13.414,12.4-18.117,0,0,10.282-5.769,21.616-.723a2.049,2.049,0,0,0,.52.216h.507a5.781,5.781,0,0,0-1.458,1.369c-.926,1.23-2,3.74,1.154,6.631,2.067,1.9,7.582,5.883,13.071,9.724l-17.166,2.434a6.717,6.717,0,0,0-12.982,2.307h0v.114c0,.152,0,.3.013.456l.139.976.14,1.027-.368.013-16.1.127v.887l-2.536,1.9-7.227.254a2.761,2.761,0,0,0,0,3.8l7.227-.127,2.028,1.648,55.023-1.141,2.029-2.155h31.7c3.169.127,6.212-3.8,6.212-3.8l3.3-8.494a134.516,134.516,0,0,0,4.311-13.692,5.5,5.5,0,0,0-1.065-4.957l4.488-15.962,3.715-2.029h0l7.962,16.114a21.282,21.282,0,0,0-2.054,1.255c-19.271,15.721-8.621,34.865-8.621,34.865l4.184-5.578c-1.559-4.184-1.648-18.637,9.2-25.052l6.669,13.515a6.976,6.976,0,1,0,4.856-1.965,6.514,6.514,0,0,0-1.116.089L425.5,266.242C437.46,261.855,445.092,268.334,445.092,268.334Zm-89,9.8a20.685,20.685,0,0,1,.431,3.5l-6.593.938c-.152-.1-.3-.216-.456-.317Zm.165,7.632a8.945,8.945,0,0,1-.228,1c-.38-.266-.773-.533-1.166-.8Zm1.99,5.008-2.409-1.9-24.722.824c.038-.127.076-.254.114-.393l21.819-3.093c2.7,1.851,5.1,3.486,6.694,4.564Zm31.949,1.268-2.916.254-.52-.241a9.239,9.239,0,0,0,2.168-.139,4.554,4.554,0,0,0,1.826-.773,5.869,5.869,0,0,0,2.954-1.166A11.045,11.045,0,0,1,390.2,292.042Z" transform="translate(-10.721)"/>
    <g id="Group_264" data-name="Group 264" transform="translate(330.347 251.979)">
      <path id="Path_396" data-name="Path 396" d="M689.262,509.134h-4.945a.317.317,0,1,1,0-.634h4.945a.317.317,0,0,1,0,.634Z" transform="translate(-684 -500.766)"/>
      <path id="Path_397" data-name="Path 397" d="M689.262,496.934h-4.945a.317.317,0,0,1,0-.634h4.945a.317.317,0,0,1,0,.634Z" transform="translate(-684 -490.113)"/>
      <path id="Path_398" data-name="Path 398" d="M689.262,484.734h-4.945a.317.317,0,1,1,0-.634h4.945a.317.317,0,0,1,0,.634Z" transform="translate(-684 -479.46)"/>
      <path id="Path_399" data-name="Path 399" d="M689.262,472.534h-4.945a.317.317,0,0,1,0-.634h4.945a.317.317,0,0,1,0,.634Z" transform="translate(-684 -468.807)"/>
      <path id="Path_400" data-name="Path 400" d="M689.262,460.334h-4.945a.317.317,0,0,1,0-.634h4.945a.317.317,0,0,1,0,.634Z" transform="translate(-684 -458.153)"/>
      <path id="Path_401" data-name="Path 401" d="M689.262,448.134h-4.945a.317.317,0,0,1,0-.634h4.945a.317.317,0,0,1,0,.634Z" transform="translate(-684 -447.5)"/>
    </g>
    <path id="Path_402" data-name="Path 402" d="M668.9,405.247a15.241,15.241,0,0,0-.786,4.526,1.613,1.613,0,0,1-1.255,1.572l-7.328,1.674a24.963,24.963,0,0,1-5.49.621,9.019,9.019,0,0,1-1.952-.165,46.273,46.273,0,0,1-4.97-2.219,9.94,9.94,0,0,0-3.651-1.014,16.533,16.533,0,0,0-2.954.025.676.676,0,0,1-.6-.241h0a2.124,2.124,0,0,1-.52-1.407v-1.154a3.808,3.808,0,0,1,.989-2.561h0a.931.931,0,0,1,.685-.3h1.914a19.846,19.846,0,0,1,2.878.2c2.13.3,6.149.849,8.241.938a92.453,92.453,0,0,0,13.743-.951,1.486,1.486,0,0,0,.253-.089c.152-.063.545-.177.748.139A.461.461,0,0,1,668.9,405.247Z" transform="translate(-314.708 -158.06)"/>
    <path id="Path_403" data-name="Path 403" d="M872.4,344.751a7.851,7.851,0,0,1,2.574-3.943A29.554,29.554,0,0,1,893.587,334c8.583,0,11.512.342,13.54,2.485a8.665,8.665,0,0,1,1.61,9.42,6.5,6.5,0,0,1-2.675,3.081,6.12,6.12,0,0,1-3.271.773c-3.842-.152-19.131-.71-23.772-.013l-.444.076c-.7.139-4.349.735-5.845-1.547A4.357,4.357,0,0,1,872.4,344.751Z" transform="translate(-517.979 -96.41)"/>
    <path id="Path_404" data-name="Path 404" d="M1039.857,323.761h-5.629a.227.227,0,0,1-.229-.228v-.3a.227.227,0,0,1,.229-.228h5.629a.227.227,0,0,1,.228.228v.3A.227.227,0,0,1,1039.857,323.761Z" transform="translate(-659.28 -86.805)" fill="#515151"/>
    <path id="Path_405" data-name="Path 405" d="M960,469.677h8.875V466.52a.522.522,0,0,0-.52-.52H963.17A3.171,3.171,0,0,0,960,469.169Z" transform="translate(-594.662 -211.675)"/>
    <path id="Path_406" data-name="Path 406" d="M1055.748,469.677H1047V466.52a.522.522,0,0,1,.52-.52h5.059a3.171,3.171,0,0,1,3.17,3.169Z" transform="translate(-670.632 -211.675)"/>
    <path id="Path_407" data-name="Path 407" d="M966.962,500.5H959v1.014a5.059,5.059,0,0,0,.773,2.65l1.724,2.815a1.482,1.482,0,0,0,1.255.609h12.488a1.555,1.555,0,0,0,1.344-.659l1.572-2.726a5.361,5.361,0,0,0,.748-2.7v-1h-7.8c-.355,0-.634.216-.634.482v.558c0,.266-.292.482-.634.482h-1.585c-.355,0-.634-.216-.634-.482v-.558A.606.606,0,0,0,966.962,500.5Z" transform="translate(-593.789 -241.801)"/>
    <path id="Path_408" data-name="Path 408" d="M980.523,561H994.14c.317,0,.545.2.469.406l-1.331,3.195a.944.944,0,0,1-.887.456h-10.1a.958.958,0,0,1-.887-.456l-1.331-3.195C979.978,561.2,980.206,561,980.523,561Z" transform="translate(-612.168 -294.631)"/>
    <path id="Path_409" data-name="Path 409" d="M1105.594,509.925l1.357.875a.155.155,0,0,1,0,.266l-.178.114h-.013a3,3,0,0,0-1,3.36.242.242,0,0,1-.228.317h-2.054a.219.219,0,0,1-.19-.33,22.375,22.375,0,0,0,2.066-4.5A.16.16,0,0,1,1105.594,509.925Z" transform="translate(-719.755 -250.009)"/>
    <circle id="Ellipse_582" data-name="Ellipse 582" cx="3.043" cy="3.043" r="3.043" transform="translate(362.803 267.637)"/>
    <path id="Path_410" data-name="Path 410" d="M886.376,590.243h-5.718a.563.563,0,0,1-.558-.558v-1.027a.563.563,0,0,1,.558-.558h5.718a.563.563,0,0,1,.558.558v1.027A.563.563,0,0,1,886.376,590.243Z" transform="translate(-524.891 -318.295)"/>
    <path id="Path_411" data-name="Path 411" d="M877.048,617.55h-6.1a.849.849,0,0,1-.849-.849v-1.826a.877.877,0,0,1,.875-.875h7.9a.877.877,0,0,1,.875.875h0A2.723,2.723,0,0,1,877.048,617.55Z" transform="translate(-516.159 -340.912)"/>
    <path id="Path_412" data-name="Path 412" d="M502.24,733.576a6.02,6.02,0,0,1-.14-.976Z" transform="translate(-194.815 -444.475)" fill="#515151"/>
    <path id="Path_413" data-name="Path 413" d="M803.489,489.182c-.456,2.51-1.762,6.149-5.54,6.377-3.753-.216-5.059-3.867-5.5-6.377a9.662,9.662,0,0,1,.431-5.16c1.636-4.3,5.071-3.892,5.071-3.892s3.461-.406,5.1,3.892A9.531,9.531,0,0,1,803.489,489.182Z" transform="translate(-448.204 -224.005)"/>
    <path id="Path_414" data-name="Path 414" d="M877.578,501.887a8.853,8.853,0,0,1,.786,4.057.36.36,0,0,0,.355.38H881.9a.368.368,0,0,0,.368-.368V505.8a.368.368,0,0,1,.368-.368H888.2a.221.221,0,0,0,.19-.342,6.97,6.97,0,0,1-1.078-2.865.338.338,0,0,0-.329-.342h-4.666a.308.308,0,0,1-.3-.3V501.3a.308.308,0,0,0-.3-.3H877.73a.365.365,0,0,0-.33.507C877.451,501.621,877.514,501.748,877.578,501.887Z" transform="translate(-522.509 -242.238)"/>
    <g id="Group_266" data-name="Group 266" transform="translate(313.32 261.044)">
      <g id="Group_265" data-name="Group 265" transform="translate(1.647 6.743)">
        <path id="Path_415" data-name="Path 415" d="M567.279,619.954a.316.316,0,0,1-.1-.013L562.9,618.6a.313.313,0,1,1,.19-.6l4.273,1.344a.313.313,0,0,1,.2.393A.277.277,0,0,1,567.279,619.954Z" transform="translate(-562.688 -612.181)"/>
        <path id="Path_416" data-name="Path 416" d="M570.179,610.854a.314.314,0,0,1-.1-.013L565.8,609.5a.313.313,0,1,1,.19-.6l4.273,1.344a.313.313,0,0,1,.2.393A.29.29,0,0,1,570.179,610.854Z" transform="translate(-565.22 -604.235)"/>
        <path id="Path_417" data-name="Path 417" d="M573.079,601.654a.318.318,0,0,1-.1-.013L568.7,600.3a.313.313,0,0,1,.19-.6l4.273,1.344a.313.313,0,0,1,.2.393A.29.29,0,0,1,573.079,601.654Z" transform="translate(-567.752 -596.201)"/>
        <path id="Path_418" data-name="Path 418" d="M575.979,592.454a.316.316,0,0,1-.1-.013L571.6,591.1a.313.313,0,0,1,.19-.6l4.273,1.344a.313.313,0,0,1,.2.393A.277.277,0,0,1,575.979,592.454Z" transform="translate(-570.285 -588.168)"/>
        <path id="Path_419" data-name="Path 419" d="M578.879,583.354a.315.315,0,0,1-.1-.013L574.5,582a.313.313,0,0,1,.19-.6l4.273,1.344a.313.313,0,0,1,.2.393A.29.29,0,0,1,578.879,583.354Z" transform="translate(-572.817 -580.221)"/>
        <path id="Path_420" data-name="Path 420" d="M581.866,574.154a.314.314,0,0,1-.1-.013L577.5,572.8a.313.313,0,0,1,.19-.6l4.273,1.344a.313.313,0,0,1,.2.393A.329.329,0,0,1,581.866,574.154Z" transform="translate(-575.437 -572.188)"/>
      </g>
      <path id="Path_421" data-name="Path 421" d="M580.1,542.586l4.691,1.394.976-3.271a.558.558,0,0,0-.38-.7l-3.613-1.078a.558.558,0,0,0-.7.38Z" transform="translate(-576.246 -536.387)"/>
      <path id="Path_422" data-name="Path 422" d="M552.549,627.9l3.6,1.116-1.927,6.225a.561.561,0,0,1-.7.368L551,634.822a.561.561,0,0,1-.368-.7Z" transform="translate(-550.495 -614.094)"/>
      <circle id="Ellipse_583" data-name="Ellipse 583" cx="1.623" cy="1.623" r="1.623" transform="translate(6.2 0)"/>
      <circle id="Ellipse_584" data-name="Ellipse 584" cx="1.331" cy="1.331" r="1.331" transform="translate(0 20.919)"/>
    </g>
    <path id="Path_423" data-name="Path 423" d="M890.442,378.806s4.691-5.071,8.368-5.578c0,0,1.775-.887,1.9.634s.38,3.8-.634,4.564-8.241,1.268-9.128,1.141S890.442,378.806,890.442,378.806Z" transform="translate(-533.852 -130.44)" fill="#515151"/>
    <path id="Path_424" data-name="Path 424" d="M291.181,535H301.5a.447.447,0,0,1,.342.735c-2.193,2.523-9.128,11.119-9.826,19.5a.7.7,0,0,1-.6.634l-1.6.241a.717.717,0,0,1-.824-.71V537.637a.541.541,0,0,1,.545-.545h0a.546.546,0,0,0,.494-.317l.659-1.458A.542.542,0,0,1,291.181,535Z" transform="translate(-8.732 -271.927)"/>
    <path id="Path_425" data-name="Path 425" d="M280.014,566.759h-.583a.428.428,0,0,1-.431-.431v-6a.427.427,0,0,1,.431-.431h.583Z" transform="translate(0 -293.671)"/>
  </g>
</svg>
