<svg xmlns="http://www.w3.org/2000/svg" width="40.152" height="40.152" viewBox="0 0 40.152 40.152">
  <path id="camera" d="M8.961,44.652A4.461,4.461,0,0,1,4.5,40.191V8.961A4.461,4.461,0,0,1,8.961,4.5h31.23a4.461,4.461,0,0,1,4.461,4.461v31.23a4.461,4.461,0,0,1-4.461,4.461ZM35.73,8.961v4.461h4.461V8.961ZM24.576,35.73A11.153,11.153,0,1,0,13.423,24.576,11.153,11.153,0,0,0,24.576,35.73Zm0-4.461a6.692,6.692,0,1,0-6.692-6.692A6.692,6.692,0,0,0,24.576,31.268Z" transform="translate(-4.5 -4.5)" fill="#fff" fill-rule="evenodd"/>
</svg>
