<svg xmlns="http://www.w3.org/2000/svg" width="63.395" height="50.716" viewBox="0 0 63.395 50.716">
  <path id="Icon_awesome-car-alt" data-name="Icon awesome-car-alt" d="M57.935,24.09,56.45,20.379,53.818,13.8A14.72,14.72,0,0,0,40.084,4.5H23.311A14.722,14.722,0,0,0,9.577,13.8L6.944,20.379,5.46,24.09A8.434,8.434,0,0,0,0,31.971v6.339a8.384,8.384,0,0,0,2.113,5.538v7.141a4.227,4.227,0,0,0,4.226,4.226h4.226a4.227,4.227,0,0,0,4.226-4.226V46.763H48.6v4.226a4.227,4.227,0,0,0,4.226,4.226h4.226a4.227,4.227,0,0,0,4.226-4.226V43.848a8.379,8.379,0,0,0,2.113-5.538V31.971A8.434,8.434,0,0,0,57.935,24.09ZM17.424,16.937a6.34,6.34,0,0,1,5.886-3.985H40.084a6.34,6.34,0,0,1,5.886,3.985L48.6,23.518H14.792l2.632-6.581ZM10.566,38.284a3.987,3.987,0,0,1-4.226-4.213,3.987,3.987,0,0,1,4.226-4.213c2.536,0,6.339,3.792,6.339,6.32S13.1,38.284,10.566,38.284Zm42.263,0c-2.536,0-6.339.421-6.339-2.107s3.8-6.32,6.339-6.32a3.987,3.987,0,0,1,4.226,4.213,3.987,3.987,0,0,1-4.226,4.213Z" transform="translate(0 -4.5)" fill="#006"/>
</svg>
