<svg xmlns="http://www.w3.org/2000/svg" width="31.992" height="42" viewBox="0 0 31.992 42">
  <g id="driver" transform="translate(-61)">
    <path id="Path_28" data-name="Path 28" d="M143.148,6.152c0-3.508-4.761-6.152-11.074-6.152S121,2.645,121,6.152a1.23,1.23,0,0,0,1.23,1.23h19.687A1.23,1.23,0,0,0,143.148,6.152Z" transform="translate(-55.078)" fill="#006"/>
    <path id="Path_29" data-name="Path 29" d="M218.306,396.479l.995-1.326-1.44-1.189Z" transform="translate(-143.994 -361.647)" fill="#006"/>
    <path id="Path_30" data-name="Path 30" d="M233.97,437.633l.667-3.851-2.1-2.795-2.1,2.8.667,3.85Z" transform="translate(-155.544 -395.634)" fill="#006"/>
    <path id="Path_31" data-name="Path 31" d="M278.026,393.968l-1.439,1.189.994,1.326Z" transform="translate(-197.902 -361.65)" fill="#006"/>
    <path id="Path_32" data-name="Path 32" d="M70.47,332.025l-.658.108A10.434,10.434,0,0,0,61,342.443v4.345H73.068Z" transform="translate(0 -304.789)" fill="#006"/>
    <path id="Path_33" data-name="Path 33" d="M315.947,342.443a10.434,10.434,0,0,0-8.812-10.31l-.659-.108-2.6,14.764h12.069Z" transform="translate(-222.954 -304.789)" fill="#006"/>
    <path id="Path_34" data-name="Path 34" d="M214.454,328.638a8.055,8.055,0,0,1-1.616.194h-4.922a8.055,8.055,0,0,1-1.616-.194l.287,1.62,3.79,3.13,3.79-3.13Z" transform="translate(-133.381 -301.679)" fill="#006"/>
    <path id="Path_35" data-name="Path 35" d="M157.152,196.036h4.922a6.16,6.16,0,0,0,6.152-6.152v-3.227a4.865,4.865,0,0,1-2.461.684h-12.3a4.865,4.865,0,0,1-2.461-.684v3.227A6.16,6.16,0,0,0,157.152,196.036Z" transform="translate(-82.617 -171.344)" fill="#006"/>
    <path id="Path_36" data-name="Path 36" d="M153.461,123.691h12.3a2.461,2.461,0,0,0,2.461-2.461V120H151v1.23A2.461,2.461,0,0,0,153.461,123.691Z" transform="translate(-82.617 -110.156)" fill="#006"/>
  </g>
</svg>
