<svg id="fuel" xmlns="http://www.w3.org/2000/svg" width="30.455" height="30.366" viewBox="0 0 30.455 30.366">
  <path id="Path_6" data-name="Path 6" d="M13.593,3.024,5.473,5.416a1.909,1.909,0,0,0-.688.367L2.316,7.841.238,5.611,3.651,2.839a.834.834,0,0,1,.291-.153L12.732.1a.837.837,0,0,1,1.039.566l.388,1.323a.836.836,0,0,1-.565,1.038Zm0,0" transform="translate(16.248 -0.063)" fill="#006"/>
  <path id="Path_7" data-name="Path 7" d="M231.546,106.144a.544.544,0,0,0-.186.315L227.582,126.1a2.215,2.215,0,0,1-3.07,1.608l-5.65-2.5a.544.544,0,0,0-.723.292.725.725,0,0,1-.947.4l-2.753-1.129a.725.725,0,0,1-.4-.946l5.138-12.538a.543.543,0,0,0-.092-.562l-.59-.682a.837.837,0,0,1,.085-1.179l5.734-4.968a.837.837,0,0,1,1.181.088l1.276,1.477a.544.544,0,0,0,.761.062l2.1-1.75L231.718,106Zm-6.959,19.816a1.234,1.234,0,0,0,1.718-.943l1.272-8.406a2.6,2.6,0,0,0-.4-1.826l-1.417,1.12a3.561,3.561,0,0,0-1.191,1.692l-2.447,7.273Zm.87-12.312-.816-.146a2.627,2.627,0,0,0-2.936,1.74L219.095,123a.544.544,0,0,0,.3.671l1.726.763,2.416-7.174a4.631,4.631,0,0,1,1.553-2.2l1.31-1.038a2.627,2.627,0,0,0-.943-.365Zm2.964-3.812-.77,3.262a.543.543,0,0,0,.4.652.517.517,0,0,0,.125.015.543.543,0,0,0,.529-.419l.771-3.262a.544.544,0,0,0-1.059-.25Zm1.522-3.256a.544.544,0,0,0-.661.392l-.272,1.065a.544.544,0,0,0,.393.661.519.519,0,0,0,.135.017.543.543,0,0,0,.526-.409l.271-1.063a.544.544,0,0,0-.393-.663Zm0,0" transform="translate(-213.989 -97.528)" fill="#006"/>
  <path id="Path_8" data-name="Path 8" d="M2.721,153.033A2.629,2.629,0,0,1,0,150.314c0-1.258,1.76-4.059,2.718-5.165.958,1.106,2.719,3.907,2.719,5.165a2.629,2.629,0,0,1-2.719,2.719Zm0,0" transform="translate(25.014 -136.521)" fill="#006"/>
</svg>
