<svg xmlns="http://www.w3.org/2000/svg" width="189.358" height="81.398" viewBox="0 0 189.358 81.398">
  <g id="Hatchback-Car-i10" transform="translate(0 0)">
    <path id="Path_222" data-name="Path 222" d="M7.77,226.743a17.116,17.116,0,0,0,3.872.342S10.579,208.37,30.736,207.99c0,0,19.777.342,17.31,22.966h17.31l75.01.114s-2.467-20.8,17.158-22.7a17.65,17.65,0,0,1,7.175.759c5.58,1.822,14.463,7.25,12.185,23.118l.873.911s9.49,0,12.793-1.329a1.088,1.088,0,0,0,.645-.987V230.5a.7.7,0,0,1,.721-.721h.873a2.829,2.829,0,0,0,1.632-1.936.488.488,0,0,0-.152-.456l-.911-.987.721-13.058v-.3l-.987-6.188a1.169,1.169,0,0,1,.114-.721l.3-.531a1.094,1.094,0,0,0,.038-.911c-1.063-2.391-7.061-12.717-33.709-17.272h-8.124s-21.675-14.5-37.581-20.5a38.746,38.746,0,0,0-12.261-2.809,338.168,338.168,0,0,0-55.119,0l-2.012-1.063H39.429l-.456,1.746-17.424,2.24a1.469,1.469,0,0,0-.114,2.126c.949,1.291,1.632,2.24,1.632,2.24L14,182.481l-2.126,2.961-.569.8S4.467,191.781,8.833,199.9l-.076.152-3.682,7.516L5.416,220.4l-.342,1.291S4.961,226.287,7.77,226.743Z" transform="translate(-5.074 -163.011)" fill="#ffc"/>
    <path id="Path_223" data-name="Path 223" d="M196.382,190.143s-19.17-14.956-43.769-12.641a.243.243,0,0,0-.228.3l3.113,19.322c0,.114.114.19.228.228,3.075.228,41.415,3.189,51.019,1.974a.321.321,0,0,0,.152-.569Z" transform="translate(-73.579 -171.85)" fill="#515151"/>
    <path id="Path_224" data-name="Path 224" d="M343.015,177.2c-3,.038-25.813.3-30.9,2.923a.417.417,0,0,0-.228.38l.228,11.692a.37.37,0,0,0,.3.38l7.972,2.316a1.959,1.959,0,0,0,.418.076c1.518.19,10.819,1.4,23.194,1.86.19,0,.38-.152.342-.342l-1.025-18.98A.327.327,0,0,0,343.015,177.2Z" transform="translate(-271.459 -171.814)" fill="#515151"/>
    <path id="Path_225" data-name="Path 225" d="M407.525,185.684l-3.3.873a.591.591,0,0,0-.3.228l-4.4,6.871a.139.139,0,0,0,.076.19l8.275,3.265a.145.145,0,0,0,.19-.114l-.342-11.16C407.676,185.722,407.6,185.646,407.525,185.684Z" transform="translate(-368.425 -177.071)" fill="#515151"/>
    <g id="Group_224" data-name="Group 224" transform="translate(81.416 31.807)">
      <path id="Path_226" data-name="Path 226" d="M263.594,252.039h3.341a1.6,1.6,0,0,0,1.594-1.594v-2.05a1.6,1.6,0,0,0-1.594-1.594h-3.341A1.6,1.6,0,0,0,262,248.394v2.05A1.6,1.6,0,0,0,263.594,252.039Z" transform="translate(-258.118 -246.8)" fill="#515151" opacity="0.5"/>
      <path id="Path_227" data-name="Path 227" d="M252.024,251.967h13.969a.163.163,0,0,0,.152-.152v-.038a2.284,2.284,0,0,0-2.278-2.278h-9.68a2.284,2.284,0,0,0-2.278,2.278v.038C251.872,251.892,251.948,251.967,252.024,251.967Z" transform="translate(-251.9 -248.475)" fill="#515151"/>
    </g>
    <g id="Group_225" data-name="Group 225" transform="translate(39.621 31.807)">
      <path id="Path_228" data-name="Path 228" d="M373.694,252.039h3.341a1.6,1.6,0,0,0,1.594-1.594v-2.05a1.6,1.6,0,0,0-1.594-1.594h-3.341a1.6,1.6,0,0,0-1.594,1.594v2.05A1.6,1.6,0,0,0,373.694,252.039Z" transform="translate(-368.218 -246.8)" fill="#515151" opacity="0.5"/>
      <path id="Path_229" data-name="Path 229" d="M362.124,251.967h13.97a.163.163,0,0,0,.152-.152v-.038a2.284,2.284,0,0,0-2.278-2.278h-9.68a2.284,2.284,0,0,0-2.278,2.278v.038C361.972,251.892,362.048,251.967,362.124,251.967Z" transform="translate(-362 -248.475)" fill="#515151"/>
    </g>
    <path id="Path_230" data-name="Path 230" d="M158.783,298.4h82.223a.68.68,0,0,0,.683-.683v-.835a.68.68,0,0,0-.683-.683H158.783a.68.68,0,0,0-.683.683v.835A.68.68,0,0,0,158.783,298.4Z" transform="translate(-110.421 -245.641)" fill="#515151"/>
    <path id="Path_231" data-name="Path 231" d="M92.259,262.618h3a.761.761,0,0,0,.759-.759h0a.761.761,0,0,0-.759-.759h-3a.761.761,0,0,0-.759.759h0A.761.761,0,0,0,92.259,262.618Z" transform="translate(60.533 -223.865)" fill="#e8d100"/>
    <path id="Path_232" data-name="Path 232" d="M6.082,279.715l2.2,4.479a.873.873,0,0,0,.759.493h6.643L14.7,278.5H6.841A.852.852,0,0,0,6.082,279.715Z" transform="translate(173.321 -234.66)" fill="#515151"/>
    <path id="Path_233" data-name="Path 233" d="M474.117,236.563l-.076.152h3.606A1.619,1.619,0,0,0,479.2,235.5l2.961-11.388a1.6,1.6,0,0,0-1.556-2.012h-3.454l-.569.8S469.751,228.439,474.117,236.563Z" transform="translate(-470.358 -199.67)" fill="#515151"/>
    <g id="Group_227" data-name="Group 227" transform="translate(136.271 46.353)">
      <ellipse id="Ellipse_402" data-name="Ellipse 402" cx="13.336" cy="13.336" rx="13.336" ry="13.336" transform="translate(4.274 4.244)" fill="#fff"/>
      <g id="Group_226" data-name="Group 226" transform="translate(0 0)">
        <path id="Path_234" data-name="Path 234" d="M70.123,291.213a11.426,11.426,0,1,0,11.426,11.426,11.426,11.426,0,0,0-11.426-11.426m0-6.093A17.523,17.523,0,1,1,52.6,302.643,17.541,17.541,0,0,1,70.123,285.12Z" transform="translate(-52.6 -285.12)"/>
        <ellipse id="Ellipse_403" data-name="Ellipse 403" cx="7.615" cy="7.615" rx="7.615" ry="7.615" transform="matrix(-0.16, -0.987, 0.987, -0.16, 11.068, 26.105)" fill="#515151"/>
        <ellipse id="Ellipse_404" data-name="Ellipse 404" cx="1.541" cy="1.067" rx="1.541" ry="1.067" transform="translate(15.981 6.704)"/>
        <ellipse id="Ellipse_405" data-name="Ellipse 405" cx="1.541" cy="1.067" rx="1.541" ry="1.067" transform="translate(23.105 10.821) rotate(-149.999)"/>
        <ellipse id="Ellipse_406" data-name="Ellipse 406" cx="1.541" cy="1.067" rx="1.541" ry="1.067" transform="translate(25.611 14.567) rotate(-120.001)"/>
        <ellipse id="Ellipse_407" data-name="Ellipse 407" cx="1.067" cy="1.541" rx="1.067" ry="1.541" transform="translate(25.9 15.978)"/>
        <ellipse id="Ellipse_408" data-name="Ellipse 408" cx="1.067" cy="1.541" rx="1.067" ry="1.541" transform="translate(25.763 24.16) rotate(-149.999)"/>
        <ellipse id="Ellipse_409" data-name="Ellipse 409" cx="1.067" cy="1.541" rx="1.067" ry="1.541" transform="translate(21.243 27.451) rotate(-120.001)"/>
        <ellipse id="Ellipse_410" data-name="Ellipse 410" cx="1.541" cy="1.067" rx="1.541" ry="1.067" transform="translate(15.674 25.9)"/>
        <ellipse id="Ellipse_411" data-name="Ellipse 411" cx="1.541" cy="1.067" rx="1.541" ry="1.067" transform="translate(13.243 27.292) rotate(-149.999)"/>
        <ellipse id="Ellipse_412" data-name="Ellipse 412" cx="1.541" cy="1.067" rx="1.541" ry="1.067" transform="translate(8.837 23.903) rotate(-120.001)"/>
        <ellipse id="Ellipse_413" data-name="Ellipse 413" cx="1.067" cy="1.541" rx="1.067" ry="1.541" transform="translate(6.704 15.674)"/>
        <ellipse id="Ellipse_414" data-name="Ellipse 414" cx="1.067" cy="1.541" rx="1.067" ry="1.541" transform="translate(9.293 14.299) rotate(-149.999)"/>
        <ellipse id="Ellipse_415" data-name="Ellipse 415" cx="1.067" cy="1.541" rx="1.067" ry="1.541" transform="translate(11.907 10.675) rotate(-120.001)"/>
        <path id="Path_235" data-name="Path 235" d="M90.205,327.391a5.485,5.485,0,1,0-5.485-5.485A5.49,5.49,0,0,0,90.205,327.391Zm0-10.359a4.878,4.878,0,1,1-4.878,4.878A4.884,4.884,0,0,1,90.205,317.031Z" transform="translate(-72.838 -304.538)" fill="#fff"/>
        <ellipse id="Ellipse_416" data-name="Ellipse 416" cx="1.522" cy="1.522" rx="1.522" ry="1.522" transform="translate(15.845 15.845)" fill="#fff"/>
      </g>
    </g>
    <g id="Group_229" data-name="Group 229" transform="translate(7.555 45.867)">
      <ellipse id="Ellipse_417" data-name="Ellipse 417" cx="13.184" cy="13.184" rx="13.184" ry="13.184" transform="translate(4.225 4.191)" fill="#fff"/>
      <g id="Group_228" data-name="Group 228" transform="translate(0 0)">
        <path id="Path_236" data-name="Path 236" d="M410.078,289.864a11.293,11.293,0,1,0,11.293,11.293,11.291,11.291,0,0,0-11.293-11.293m0-6.024a17.318,17.318,0,1,1-17.318,17.318,17.335,17.335,0,0,1,17.318-17.318Z" transform="translate(-392.76 -283.84)"/>
        <ellipse id="Ellipse_418" data-name="Ellipse 418" cx="7.528" cy="7.528" rx="7.528" ry="7.528" transform="matrix(-0.16, -0.987, 0.987, -0.16, 10.936, 25.801)" fill="#515151"/>
        <ellipse id="Ellipse_419" data-name="Ellipse 419" cx="1.522" cy="1.055" rx="1.522" ry="1.055" transform="translate(15.795 6.624)"/>
        <ellipse id="Ellipse_420" data-name="Ellipse 420" cx="1.522" cy="1.055" rx="1.522" ry="1.055" transform="translate(22.838 10.697) rotate(-149.999)"/>
        <ellipse id="Ellipse_421" data-name="Ellipse 421" cx="1.522" cy="1.055" rx="1.522" ry="1.055" transform="translate(25.315 14.402) rotate(-120.001)"/>
        <ellipse id="Ellipse_422" data-name="Ellipse 422" cx="1.055" cy="1.522" rx="1.055" ry="1.522" transform="translate(25.597 15.795)"/>
        <ellipse id="Ellipse_423" data-name="Ellipse 423" cx="1.055" cy="1.522" rx="1.055" ry="1.522" transform="translate(25.469 23.882) rotate(-149.999)"/>
        <ellipse id="Ellipse_424" data-name="Ellipse 424" cx="1.055" cy="1.522" rx="1.055" ry="1.522" transform="translate(20.997 27.137) rotate(-120.001)"/>
        <ellipse id="Ellipse_425" data-name="Ellipse 425" cx="1.522" cy="1.055" rx="1.522" ry="1.055" transform="translate(15.496 25.597)"/>
        <ellipse id="Ellipse_426" data-name="Ellipse 426" cx="1.522" cy="1.055" rx="1.522" ry="1.055" transform="translate(13.092 26.974) rotate(-149.999)"/>
        <ellipse id="Ellipse_427" data-name="Ellipse 427" cx="1.522" cy="1.055" rx="1.522" ry="1.055" transform="translate(8.734 23.63) rotate(-120.001)"/>
        <ellipse id="Ellipse_428" data-name="Ellipse 428" cx="1.055" cy="1.522" rx="1.055" ry="1.522" transform="translate(6.624 15.492)"/>
        <ellipse id="Ellipse_429" data-name="Ellipse 429" cx="1.055" cy="1.522" rx="1.055" ry="1.522" transform="translate(9.189 14.134) rotate(-149.999)"/>
        <ellipse id="Ellipse_430" data-name="Ellipse 430" cx="1.055" cy="1.522" rx="1.055" ry="1.522" transform="translate(11.773 10.552) rotate(-120.001)"/>
        <path id="Path_237" data-name="Path 237" d="M429.921,325.622A5.421,5.421,0,1,0,424.5,320.2,5.429,5.429,0,0,0,429.921,325.622Zm0-10.238A4.821,4.821,0,1,1,425.1,320.2,4.825,4.825,0,0,1,429.921,315.384Z" transform="translate(-412.755 -303.035)" fill="#fff"/>
        <ellipse id="Ellipse_431" data-name="Ellipse 431" cx="1.507" cy="1.507" rx="1.507" ry="1.507" transform="translate(15.659 15.659)" fill="#fff"/>
      </g>
    </g>
  </g>
</svg>
