<svg id="headphones" xmlns="http://www.w3.org/2000/svg" width="36.914" height="42" viewBox="0 0 36.914 42">
  <g id="Group_5" data-name="Group 5" transform="translate(4.922 17.227)">
    <g id="Group_4" data-name="Group 4">
      <path id="Path_37" data-name="Path 37" d="M94.691,210A3.7,3.7,0,0,0,91,213.691V223.7a3.691,3.691,0,0,0,7.383,0V213.691A3.7,3.7,0,0,0,94.691,210Z" transform="translate(-91 -210)" fill="#006"/>
    </g>
  </g>
  <g id="Group_7" data-name="Group 7" transform="translate(0 19.882)">
    <g id="Group_6" data-name="Group 6">
      <path id="Path_38" data-name="Path 38" d="M33.461,243.4a6.1,6.1,0,0,1,.1-1.036,3.684,3.684,0,0,0-2.566,3.5v5.086a3.684,3.684,0,0,0,2.566,3.5,6.1,6.1,0,0,1-.1-1.036Z" transform="translate(-31 -242.366)" fill="#006"/>
    </g>
  </g>
  <g id="Group_9" data-name="Group 9" transform="translate(14.766 17.227)">
    <g id="Group_8" data-name="Group 8">
      <path id="Path_39" data-name="Path 39" d="M224.535,210a3.7,3.7,0,0,0-3.691,3.691V223.7a3.7,3.7,0,0,0,3.691,3.691,3.641,3.641,0,0,0,1.058-.173,3.684,3.684,0,0,1-3.518,2.634h-3.918a3.691,3.691,0,1,0,0,2.461h3.918a6.16,6.16,0,0,0,6.152-6.152V213.691A3.7,3.7,0,0,0,224.535,210Z" transform="translate(-211 -210)" fill="#006"/>
    </g>
  </g>
  <g id="Group_11" data-name="Group 11" transform="translate(34.348 19.882)">
    <g id="Group_10" data-name="Group 10">
      <path id="Path_40" data-name="Path 40" d="M449.722,242.366a6.106,6.106,0,0,1,.1,1.036V253.41a6.106,6.106,0,0,1-.1,1.036,3.684,3.684,0,0,0,2.566-3.5v-5.086A3.684,3.684,0,0,0,449.722,242.366Z" transform="translate(-449.722 -242.366)" fill="#006"/>
    </g>
  </g>
  <g id="Group_13" data-name="Group 13">
    <g id="Group_12" data-name="Group 12">
      <path id="Path_41" data-name="Path 41" d="M49.457,0A18.477,18.477,0,0,0,31,18.457v.031a6.093,6.093,0,0,1,2.517-1.143,15.977,15.977,0,0,1,31.879,0,6.1,6.1,0,0,1,2.517,1.143v-.031A18.477,18.477,0,0,0,49.457,0Z" transform="translate(-31)" fill="#006"/>
    </g>
  </g>
</svg>
