<svg id="identification-card" xmlns="http://www.w3.org/2000/svg" width="56.897" height="40.711" viewBox="0 0 56.897 40.711">
  <path id="Path_9" data-name="Path 9" d="M52.973,44.872H3.924A3.924,3.924,0,0,0,0,48.8V81.659a3.924,3.924,0,0,0,3.924,3.924H52.973A3.924,3.924,0,0,0,56.9,81.659V48.8A3.924,3.924,0,0,0,52.973,44.872Zm-27.426,8.97H38.258a1.472,1.472,0,1,1,0,2.943H25.547a1.472,1.472,0,1,1,0-2.943ZM20.273,76.276H6.375V54.191h13.9V76.276Zm30.493.171H25.547a1.472,1.472,0,0,1,0-2.943H50.766a1.472,1.472,0,0,1,0,2.943Zm0-5.273H25.547a1.472,1.472,0,0,1,0-2.943H50.766a1.472,1.472,0,0,1,0,2.943Zm0-5.273H25.547a1.472,1.472,0,1,1,0-2.943H50.766a1.472,1.472,0,0,1,0,2.943Z" transform="translate(0 -44.872)" fill="#fff"/>
</svg>
