<svg id="identity-card" xmlns="http://www.w3.org/2000/svg" width="57.991" height="42.292" viewBox="0 0 57.991 42.292">
  <path id="Path_10" data-name="Path 10" d="M52.4,6.318H5.591A5.592,5.592,0,0,0,0,11.909v31.11A5.592,5.592,0,0,0,5.591,48.61H52.4a5.591,5.591,0,0,0,5.591-5.591V11.909A5.591,5.591,0,0,0,52.4,6.318ZM5.573,34.617c0-.066.015-.129.017-.19.089-2.723,2.045-4.946,5.12-6.154a7.313,7.313,0,0,1,.471-9.927,7.513,7.513,0,0,1,1.024-.846,7.329,7.329,0,0,1,9.738,10.772c2.951,1.158,4.883,3.246,5.111,5.824a3.834,3.834,0,0,1,.031.522,4.077,4.077,0,0,1-4.063,4.064H9.634a4.054,4.054,0,0,1-4.045-3.892C5.588,34.73,5.573,34.676,5.573,34.617ZM52.4,36.331a2.477,2.477,0,0,1-2.467,2.316H35.024a2.485,2.485,0,1,1,0-4.97H49.933A2.474,2.474,0,0,1,52.4,35.992c0,.058.017.112.017.17S52.4,36.274,52.4,36.331Zm0-8.7a2.477,2.477,0,0,1-2.467,2.315H35.024a2.485,2.485,0,1,1,0-4.97H49.933A2.474,2.474,0,0,1,52.4,27.294c0,.057.017.111.017.168S52.4,27.575,52.4,27.633Zm0-8.7a2.477,2.477,0,0,1-2.467,2.316H35.024a2.485,2.485,0,0,1,0-4.97H49.933A2.474,2.474,0,0,1,52.4,18.6c0,.057.017.111.017.169S52.4,18.878,52.4,18.935Z" transform="translate(0 -6.318)" fill="#fff"/>
</svg>
