<svg xmlns="http://www.w3.org/2000/svg" width="36" height="36" viewBox="0 0 36 36">
  <g id="Group_343" data-name="Group 343" transform="translate(-488 -546)">
    <g id="Ellipse_616" data-name="Ellipse 616" transform="translate(488 546)" fill="#fff" stroke="#006" stroke-width="1">
      <circle cx="18" cy="18" r="18" stroke="none"/>
      <circle cx="18" cy="18" r="17.5" fill="none"/>
    </g>
    <path id="Icon_awesome-camera" data-name="Icon awesome-camera" d="M23.143,7.313V20.33a2.17,2.17,0,0,1-2.17,2.17H2.17A2.17,2.17,0,0,1,0,20.33V7.313a2.17,2.17,0,0,1,2.17-2.17H6.147L6.7,3.656A2.167,2.167,0,0,1,8.733,2.25h5.673a2.167,2.167,0,0,1,2.03,1.406L17,5.143h3.978A2.17,2.17,0,0,1,23.143,7.313ZM17,13.821a5.424,5.424,0,1,0-5.424,5.424A5.428,5.428,0,0,0,17,13.821Zm-1.446,0a3.978,3.978,0,1,1-3.978-3.978A3.984,3.984,0,0,1,15.549,13.821Z" transform="translate(494.429 551.464)" fill="#006"/>
  </g>
</svg>
