<svg xmlns="http://www.w3.org/2000/svg" width="46.565" height="67.993" viewBox="0 0 46.565 67.993">
  <g id="Group_377" data-name="Group 377" transform="translate(-746.989 -166.44)">
    <path id="Path_7" data-name="Path 7" d="M761.444,168.349l-2.3-1.418-.8-.491-.446.825-5.406,10.014-.409.758.746.431,2.3,1.329.787.454.434-.8,5.406-9.925.4-.738Zm-5.87,10.68-2.3-1.329,5.406-10.014,2.3,1.418Z" transform="translate(-4.64 0)" fill="#fff"/>
    <path id="Path_8" data-name="Path 8" d="M826.16,224.594c-.9-.981-2.819-2.987-3.686-3.188a2.128,2.128,0,0,0-.471-.048c-1.236,0-3.237.814-2.227,3.168a3,3,0,0,0,.622.918c.891.9,3.365,3.5,3.583,4.735.016.09.029.183.04.278.092-.007.184-.012.277-.012a2.922,2.922,0,0,1,.119-.316l1.935-4.353A1.094,1.094,0,0,0,826.16,224.594Zm-.618.822-1.376,3.1a15.427,15.427,0,0,0-1.041-1.39c-.782-.946-1.648-1.848-2.1-2.3a2.07,2.07,0,0,1-.439-.644,1.392,1.392,0,0,1-.072-1.312,1.892,1.892,0,0,1,1.484-.62,1.261,1.261,0,0,1,.272.025c.255.069,1.261.77,3.231,2.923A.209.209,0,0,1,825.542,225.417Zm5.359-1.62-1.7-3.245-.015-.03-.018-.028-4.726-7.545a3.468,3.468,0,0,0-2.951-1.637c-6.543-.013-8.855-.651-8.942-.677l-.7-.224-.342.646-4.608,8.419-.178.325.106.354c.08.267.268.891,3.868,3.812.9.728,1.805,1.428,2.555,1.972a6.966,6.966,0,0,0,1.767,1.094,39.638,39.638,0,0,1,4.845,4.362,3.044,3.044,0,0,1,.584.8c.1.191.19.372.283.543s.184.325.281.472a2.925,2.925,0,0,0,1.871,1.375,1.241,1.241,0,0,0,.3.036,1.314,1.314,0,0,0,1.006-.5,1.933,1.933,0,0,0,.18-.258,2.086,2.086,0,0,0,.713.346,1.509,1.509,0,0,0,1.736-.79l.476-.952.223-.446,3.406-6.814A1.551,1.551,0,0,0,830.9,223.8Zm-.779,1.014-3.267,6.534-.2.407-.636,1.271a.627.627,0,0,1-.559.349.592.592,0,0,1-.156-.02c-.428-.113-.975-.511-1.113-1.776a2.827,2.827,0,0,1,.111-1.129,2.922,2.922,0,0,1,.119-.316l1.935-4.353a1.094,1.094,0,0,0-.191-1.182c-.9-.981-2.819-2.987-3.686-3.188a2.128,2.128,0,0,0-.471-.048c-1.236,0-3.237.814-2.227,3.168a3,3,0,0,0,.622.918c.891.9,3.365,3.5,3.583,4.735.016.09.029.183.04.278.017.144.028.292.034.442.051,1.337-.322,2.834-.88,2.834a.307.307,0,0,1-.08-.01A2.316,2.316,0,0,1,821.5,232.3c-.072-.131-.146-.273-.224-.428-.014-.027-.027-.054-.042-.082a3.946,3.946,0,0,0-.753-1.032c-1.239-1.219-4.474-4.357-5.187-4.571-.886-.266-7.355-5.406-7.621-6.292l4.608-8.419s2.263.7,9.2.716a2.6,2.6,0,0,1,2.2,1.221l4.725,7.545,1.7,3.245A.661.661,0,0,1,830.121,224.81Zm-5.956,3.7a15.427,15.427,0,0,0-1.041-1.39c-.782-.946-1.648-1.848-2.1-2.3a2.07,2.07,0,0,1-.439-.644,1.392,1.392,0,0,1-.072-1.312,1.892,1.892,0,0,1,1.484-.62,1.261,1.261,0,0,1,.272.025c.255.069,1.261.77,3.231,2.923a.209.209,0,0,1,.036.224Zm1.995-3.92c-.9-.981-2.819-2.987-3.686-3.188a2.128,2.128,0,0,0-.471-.048c-1.236,0-3.237.814-2.227,3.168a3,3,0,0,0,.622.918c.891.9,3.365,3.5,3.583,4.735.016.09.029.183.04.278.092-.007.184-.012.277-.012a2.922,2.922,0,0,1,.119-.316l1.935-4.353A1.094,1.094,0,0,0,826.16,224.594Zm-.618.822-1.376,3.1a15.427,15.427,0,0,0-1.041-1.39c-.782-.946-1.648-1.848-2.1-2.3a2.07,2.07,0,0,1-.439-.644,1.392,1.392,0,0,1-.072-1.312,1.892,1.892,0,0,1,1.484-.62,1.261,1.261,0,0,1,.272.025c.255.069,1.261.77,3.231,2.923A.209.209,0,0,1,825.542,225.417Zm.618-.822c-.9-.981-2.819-2.987-3.686-3.188a2.128,2.128,0,0,0-.471-.048c-1.236,0-3.237.814-2.227,3.168a3,3,0,0,0,.622.918c.891.9,3.365,3.5,3.583,4.735.016.09.029.183.04.278.092-.007.184-.012.277-.012a2.922,2.922,0,0,1,.119-.316l1.935-4.353A1.094,1.094,0,0,0,826.16,224.594Zm-.618.822-1.376,3.1a15.427,15.427,0,0,0-1.041-1.39c-.782-.946-1.648-1.848-2.1-2.3a2.07,2.07,0,0,1-.439-.644,1.392,1.392,0,0,1-.072-1.312,1.892,1.892,0,0,1,1.484-.62,1.261,1.261,0,0,1,.272.025c.255.069,1.261.77,3.231,2.923A.209.209,0,0,1,825.542,225.417Z" transform="translate(-54.437 -40.073)" fill="#fff"/>
    <path id="Path_9" data-name="Path 9" d="M1153.337,788.477l-1.861-1.506-.692-.56-.557.694-7.178,8.95-.549.685.68.556,1.95,1.6.7.573.559-.712,7.089-9.039.539-.687Zm-7.647,9.728-1.949-1.6,7.178-8.95,1.861,1.507Z" transform="translate(-360.461 -565.029)" fill="#fff"/>
    <path id="Path_10" data-name="Path 10" d="M788.36,727.434l-1.432-1.172a5.044,5.044,0,0,1-.715-.714,10.03,10.03,0,0,0-3.859-2.991,8.762,8.762,0,0,0-3.437-.7,7.365,7.365,0,0,0-2.112.276l-1.779.569a2.04,2.04,0,0,1-.623.1h-8.064a3.555,3.555,0,0,0-1.414.287,2.829,2.829,0,0,0-1.85,2.5,2.353,2.353,0,0,0,.593,1.748l.055.058-.088.005H763.6a.723.723,0,0,1-.106-.008l-3.326-.529a1.674,1.674,0,0,1-.5-.165c-1.2-.616-4.177-2.12-5.937-2.779a4.731,4.731,0,0,0-1.661-.324,3.287,3.287,0,0,0-2.077.689h-.059a2.827,2.827,0,0,0-2.907,2.3,1.273,1.273,0,0,0,.836,1.5L758.1,731.53l.016.005.016,0,7.858,2.315a4.94,4.94,0,0,0,1.392.2c1.859,0,8.125.027,10.712.175,2.456.141,3.3,1.173,3.387,1.288l.644,1.1.785-1.031,5.583-6.912.553-.685Zm-6.144,7.6s-.975-1.506-4.076-1.684c-2.6-.149-8.828-.173-10.761-.176a4.075,4.075,0,0,1-1.144-.167l-7.857-2.316-10.237-3.441a.389.389,0,0,1-.254-.458,1.956,1.956,0,0,1,2.043-1.617,3.485,3.485,0,0,1,.384.022,2.267,2.267,0,0,1,1.752-.711,3.845,3.845,0,0,1,1.35.268c1.744.654,4.8,2.2,5.843,2.738a2.547,2.547,0,0,0,.768.251l3.326.529a1.524,1.524,0,0,0,.245.02l.088,0,7.541-.424a.147.147,0,0,0,.135-.182l-.018-.072a.147.147,0,0,0-.141-.112l-5.292-.087s-2.038-.089-1.95-1.772a1.982,1.982,0,0,1,1.315-1.735,2.687,2.687,0,0,1,1.064-.214H774.4a2.93,2.93,0,0,0,.892-.139l1.78-.57a6.594,6.594,0,0,1,1.841-.234,8.347,8.347,0,0,1,6.608,3.36,5.9,5.9,0,0,0,.842.842l1.432,1.171Z" transform="translate(0 -506.2)" fill="#fff"/>
    <path id="Path_11" data-name="Path 11" d="M964.173,436.512c.017.144.028.292.034.442.048,0,.1-.007.145-.009a2.735,2.735,0,0,1,.1-.446C964.358,436.5,964.265,436.505,964.173,436.512Zm3.487,1.562a3.965,3.965,0,0,0-.654-.676l-.2.407a3.532,3.532,0,0,1,1.229,2.683,3.539,3.539,0,0,1-.976,2.442,3.414,3.414,0,0,1-.343.316,3.527,3.527,0,0,1-2.225.786c-.084,0-.168,0-.252-.009a3.482,3.482,0,0,1-.444-.059,3.537,3.537,0,0,1-1.3-.548,3.467,3.467,0,0,1-.35-.274,3.54,3.54,0,0,1-.487-4.785c-.072-.131-.146-.273-.224-.428a3.98,3.98,0,0,0,.448,5.57,3.9,3.9,0,0,0,.353.273,4,4,0,0,0,1.945.69c.1.007.206.012.311.012a3.973,3.973,0,0,0,2.466-.856,4.059,4.059,0,0,0,.332-.3,3.988,3.988,0,0,0,.852-1.231,3.861,3.861,0,0,0,.155-.414,3.98,3.98,0,0,0-.633-3.6Zm-3.309-1.129a2.735,2.735,0,0,1,.1-.446c-.093,0-.185.005-.277.012.017.144.028.292.034.442C964.255,436.95,964.3,436.948,964.352,436.946Zm-.178-.433c.017.144.028.292.034.442.048,0,.1-.007.145-.009a2.735,2.735,0,0,1,.1-.446C964.358,436.5,964.265,436.505,964.173,436.512Z" transform="translate(-194.59 -246.128)" fill="#fff"/>
    <path id="Path_12" data-name="Path 12" d="M973.41,505.282a.969.969,0,0,0-.341-.062,1.45,1.45,0,0,0-1.048.553,2.328,2.328,0,0,0-.262.358,2.878,2.878,0,0,0-.229.466l0,0a3.047,3.047,0,0,0-.128.421c.141.028.287.058.435.09a2.543,2.543,0,0,1,.106-.353c.01-.024.019-.049.029-.072a2.36,2.36,0,0,1,.14-.284,2.03,2.03,0,0,1,.26-.357,1.01,1.01,0,0,1,.7-.384.51.51,0,0,1,.182.033.876.876,0,0,1,.42.9,2.126,2.126,0,0,1-.057.44c0,.012-.005.024-.009.036a2.581,2.581,0,0,1-.092.292c-.017.043-.035.087-.054.129a2.228,2.228,0,0,1-.325.529,1.382,1.382,0,0,1-.442.362.7.7,0,0,1-.306.077.511.511,0,0,1-.182-.033.525.525,0,0,1-.235-.182.992.992,0,0,1-.175-.481c-.159-.028-.312-.055-.455-.078a1.811,1.811,0,0,0,.085.464,1.07,1.07,0,0,0,.62.692.965.965,0,0,0,.341.062,1.346,1.346,0,0,0,.9-.4,2.153,2.153,0,0,0,.33-.384,2.7,2.7,0,0,0,.281-.518c.011-.027.022-.052.032-.079a3.025,3.025,0,0,0,.109-.343c.007-.028.014-.057.019-.084a2.5,2.5,0,0,0,.059-.44A1.3,1.3,0,0,0,973.41,505.282Z" transform="translate(-204.469 -308.758)" fill="#fff"/>
    <path id="Path_13" data-name="Path 13" d="M1031.909,495.067c-.023-.053-.05-.107-.079-.16a2.28,2.28,0,0,0-.264-.382,2.876,2.876,0,0,0-.483-.452,2.78,2.78,0,0,0-.727-.39,2.09,2.09,0,0,0-.43-.106,1.564,1.564,0,0,0-.23-.017,1.09,1.09,0,0,0-.909.411,1.16,1.16,0,0,0-.061,1.173c.015.036.032.071.051.106a2.223,2.223,0,0,0,.241.373,2.853,2.853,0,0,0,.534.515,2.777,2.777,0,0,0,.246.164,2.694,2.694,0,0,0,.486.229,1.985,1.985,0,0,0,.654.12,1.089,1.089,0,0,0,.909-.411A1.159,1.159,0,0,0,1031.909,495.067Zm-.417.91a.658.658,0,0,1-.553.231,1.7,1.7,0,0,1-.7-.175,2.432,2.432,0,0,1-.42-.252l-.012-.009a2.359,2.359,0,0,1-.455-.445,1.642,1.642,0,0,1-.23-.394.708.708,0,0,1,.024-.7.658.658,0,0,1,.553-.231l.06,0a1.579,1.579,0,0,1,.445.092,2.337,2.337,0,0,1,.617.332,2.381,2.381,0,0,1,.341.307,1.981,1.981,0,0,1,.278.376A.8.8,0,0,1,1031.491,495.977Z" transform="translate(-256.653 -298.131)" fill="#fff"/>
    <path id="Path_14" data-name="Path 14" d="M941.108,520.183a1.48,1.48,0,0,0-.879-.693c-.1-.027-.4-.106-.8-.208l-.431-.108c-.5-.123-1.078-.262-1.635-.382-.15-.032-.3-.063-.441-.091a8.654,8.654,0,0,0-1.416-.2,1.672,1.672,0,0,0-1.33.682,2.387,2.387,0,0,0-.481,1.133,22.552,22.552,0,0,0-.315,3.714l.009.108a2.992,2.992,0,0,0,.5,1.716,4.031,4.031,0,0,0,2.408,1.233,3.641,3.641,0,0,0,.825.1,3.471,3.471,0,0,0,2.448-1.054,3.175,3.175,0,0,0,.846-1.5l.749-2.993A1.789,1.789,0,0,0,941.108,520.183Zm-.372,1.33-.752,3.008a2.734,2.734,0,0,1-.727,1.291,3.026,3.026,0,0,1-2.137.926,3.2,3.2,0,0,1-.726-.085c-2.492-.575-2.481-1.507-2.57-2.659a22.309,22.309,0,0,1,.311-3.615,1.927,1.927,0,0,1,.39-.923,1.241,1.241,0,0,1,.983-.514,8.008,8.008,0,0,1,1.286.183c.141.028.287.058.435.09.549.117,1.129.256,1.624.378l.436.109c.493.125.826.214.826.214S941.179,520.184,940.736,521.513Z" transform="translate(-169.863 -320.861)" fill="#fff"/>
    <path id="Path_15" data-name="Path 15" d="M955.19,532.82l-.018,0-.017,0-.407-.085-.48-.1c-.406-.082-.894-.178-1.34-.257-.159-.028-.312-.055-.455-.078-.171-.027-.326-.049-.455-.064a1.5,1.5,0,0,0-.165-.009h0a1.237,1.237,0,0,0-1.206,1.181.614.614,0,0,0,.5.694l4.026.715a.606.606,0,0,0,.7-.473A1.2,1.2,0,0,0,955.19,532.82Zm.249,1.427a.166.166,0,0,1-.162.13l-.029,0-4.026-.715a.168.168,0,0,1-.137-.191c.043-.276.2-.806.769-.806a1.038,1.038,0,0,1,.114.006c.161.019.364.049.591.087.172.028.356.061.544.1.241.044.489.092.723.138l.593.12c.381.078.643.135.643.135S955.613,533.41,955.439,534.247Z" transform="translate(-185.603 -333.365)" fill="#fff"/>
    <path id="Path_16" data-name="Path 16" d="M937.487,612.154s-.06,0-.159,0a3.728,3.728,0,0,1-1.628-.33l-.552-.317-.106.627-.584,3.447-.031.184.109.151.174.239-.009.576-.229.134-.217.126,0,.251-.007.443,0,.213.165.136.142.118-.033.012-.28.107,0,.3-.006.362-.019,0-.337.079-.005.345-.011.709,0,.143.082.116.433.627.129.187.228,0,.532.008.2,0,.135-.147.587-.64.332.005.007-.443.008-.532.006-.443.008-.532,0-.26.318-.308.131-.128,0-.184.006-.443.006-.4.48-.419.149-.13,0-.2.006-.423.308-2.9.055-.518Zm-.286,3.362-.007.443-.9.784-.005.354.266,0-.006.443-.45.437-.177,0-.006.443.176,0-.008.531-.177,0-.006.443.177,0-.008.532h-.089l-.721.787-.532-.009-.433-.626.011-.709.355-.083.011-.709.446-.17.005-.354-.438-.362.006-.443.447-.259.015-.975-.26-.358.584-3.448a4.058,4.058,0,0,0,1.849.389c.115,0,.183,0,.183,0Z" transform="translate(-170.301 -405.629)" fill="#fff"/>
    <g id="Group_4" data-name="Group 4" transform="translate(771.407 194.249)">
      <path id="Path_17" data-name="Path 17" d="M1051.038,482.578l-.583-.5-1.871-1.61a.9.9,0,0,0-1.009-.117l-3.925,2.042-.406.211-.9.467a.907.907,0,0,0-.457.57.881.881,0,0,0-.026.324l.02.2.224,2.255.076.761.031.312.356-.185,8.35-4.344.356-.185Zm-8.718,1.341a.119.119,0,0,1,0-.019.444.444,0,0,1,.238-.421l.963-.5.392-.2,3.874-2.014a.443.443,0,0,1,.5.058l2.174,1.871-7.853,4.085-.236-2.376Z" transform="translate(-1040.144 -480.247)" fill="#fff"/>
      <path id="Path_18" data-name="Path 18" d="M1043.83,503.245l-8.35,4.344.078.151,8.35-4.344Zm0,0-8.35,4.344.078.151,8.35-4.344Zm3.589,2.949-1.642-3.157a1,1,0,0,0-1.342-.434l-.014.006-.317.165h0l-.156.081-.253.131-8.35,4.345-.253.131-.157.082-.318.166a1,1,0,0,0-.427,1.353l1.643,3.158a1.006,1.006,0,0,0,1.355.427l.619-.322.409-.213,1.1-.573.408-.213,5.028-2.615.409-.213,1.1-.573.41-.213.317-.165A1.006,1.006,0,0,0,1047.42,506.194Zm-.64.946-.317.165-1.919,1-5.028,2.615-1.92,1-.619.323a.543.543,0,0,1-.732-.231l-1.643-3.158a.543.543,0,0,1,.231-.732l.727-.379,8.35-4.344.726-.377.012-.006a.545.545,0,0,1,.72.237l1.643,3.158A.543.543,0,0,1,1046.78,507.139Zm-2.949-3.895-8.35,4.344.078.151,8.35-4.344Z" transform="translate(-1033.055 -500.524)" fill="#fff"/>
      <path id="Path_19" data-name="Path 19" d="M1076.7,599.506l-.81-1.557-.212-.409-1.92,1,.213.409.81,1.556a.288.288,0,0,0,.389.123l1.408-.733A.288.288,0,0,0,1076.7,599.506Zm-1.59.632-.73-1.4,1.1-.573.729,1.4Z" transform="translate(-1069.22 -587.146)" fill="#fff"/>
      <path id="Path_20" data-name="Path 20" d="M1155.1,558.727l-.811-1.558-.213-.409-1.919,1,.212.409.811,1.558a.287.287,0,0,0,.386.122l1.411-.734A.288.288,0,0,0,1155.1,558.727Zm-1.592.631-.729-1.4,1.1-.573.73,1.4Z" transform="translate(-1140.672 -549.98)" fill="#fff"/>
      <path id="Path_21" data-name="Path 21" d="M1024.952,549.006l-.135-.258-.329-.63-.013-.026a.28.28,0,0,0-.379-.12l-1.415.736a.287.287,0,0,0-.122.387l.419.806a.288.288,0,0,0,.387.122l.19-.1.749-.39.727-.378Zm-.862.12-.783.407-.258-.5,1.1-.572.259.5Z" transform="translate(-1022.526 -541.941)" fill="#fff"/>
      <path id="Path_22" data-name="Path 22" d="M1140.765,488.633l-.419-.807a.286.286,0,0,0-.386-.121l-1.415.736a.281.281,0,0,0-.12.379l.013.024.329.632.135.259.079.151h0l.726-.378.012-.006.738-.384.189-.1A.286.286,0,0,0,1140.765,488.633Zm-.748-.44.258.5-.771.4-.013.006-.317.166h0l-.258-.5Z" transform="translate(-1128.124 -487.013)" fill="#fff"/>
      <path id="Path_23" data-name="Path 23" d="M1054.759,562.4l-.591-1.137a.272.272,0,0,0-.365-.115l-1.741.906a.271.271,0,0,0-.116.365l.591,1.137a.271.271,0,0,0,.366.115l1.741-.906A.27.27,0,0,0,1054.759,562.4Zm-1.9.774-.416-.8,1.4-.73.416.8Z" transform="translate(-1049.311 -553.949)" fill="#fff"/>
      <path id="Path_24" data-name="Path 24" d="M1133.17,521.629l-.587-1.13a.277.277,0,0,0-.371-.117l-1.733.9a.275.275,0,0,0-.117.37l.588,1.13a.275.275,0,0,0,.37.117l1.734-.9A.275.275,0,0,0,1133.17,521.629Zm-1.9.777-.416-.8,1.4-.73.416.8Z" transform="translate(-1120.776 -516.797)" fill="#fff"/>
      <path id="Path_25" data-name="Path 25" d="M1085.517,538.533l-.3-.579a.245.245,0,0,0-.33-.1l-3.9,2.03a.244.244,0,0,0-.1.329l.3.581a.244.244,0,0,0,.328.1l3.9-2.03A.245.245,0,0,0,1085.517,538.533Zm-4.027,1.85-.1-.195,3.517-1.83.1.2Z" transform="translate(-1075.682 -532.719)" fill="#fff"/>
    </g>
  </g>
</svg>
