<svg id="Icon_ionic-md-speedometer" data-name="Icon ionic-md-speedometer" xmlns="http://www.w3.org/2000/svg" width="32" height="32" viewBox="0 0 32 32">
  <path id="Path_58" data-name="Path 58" d="M9,29.25H25.135v4.76H9Z" transform="translate(-1.067 -2.01)" fill="#006"/>
  <path id="Path_59" data-name="Path 59" d="M20.293,23.466a3.173,3.173,0,1,0-.873-6.227L12.807,12.41l-.4.347,4.849,6.614a3.1,3.1,0,0,0-.139.922A3.17,3.17,0,0,0,20.293,23.466Z" transform="translate(-3.572 -3.572)" fill="#006"/>
  <path id="Path_60" data-name="Path 60" d="M19.375,3.375c-8.838,0-16,6.669-16,14.9a14.2,14.2,0,0,0,3.392,9.168H11.29l.308-.287,1.7-1.583-1.762-1.64-1.7,1.576A11.014,11.014,0,0,1,7.129,19.42h2.4V17.128h-2.4a11.014,11.014,0,0,1,2.708-6.088l1.7,1.576,1.762-1.64L11.606,9.392A12.758,12.758,0,0,1,18.144,6.87V9.105h2.462V6.87a12.758,12.758,0,0,1,6.538,2.521l-1.692,1.583,1.762,1.64,1.7-1.576a11.014,11.014,0,0,1,2.708,6.088h-2.4V19.42h2.4a11.014,11.014,0,0,1-2.708,6.088l-1.7-1.576-1.762,1.64,1.7,1.583.308.287h4.523a14.2,14.2,0,0,0,3.392-9.168C35.375,10.044,28.213,3.375,19.375,3.375Z" transform="translate(-3.375 -3.375)" fill="#006"/>
</svg>
