<svg xmlns="http://www.w3.org/2000/svg" width="71.29" height="51.091" viewBox="0 0 71.29 51.091">
  <g id="truck" transform="translate(0 -72.533)">
    <g id="Group_352" data-name="Group 352" transform="translate(9.505 109.366)">
      <g id="Group_351" data-name="Group 351" transform="translate(0 0)">
        <path id="Path_441" data-name="Path 441" d="M75.4,337.067a7.129,7.129,0,1,0,7.129,7.129A7.136,7.136,0,0,0,75.4,337.067Zm0,11.882a4.753,4.753,0,1,1,4.753-4.753A4.757,4.757,0,0,1,75.4,348.949Z" transform="translate(-68.267 -337.067)" fill="#fff"/>
      </g>
    </g>
    <g id="Group_354" data-name="Group 354" transform="translate(49.903 109.366)">
      <g id="Group_353" data-name="Group 353" transform="translate(0 0)">
        <path id="Path_442" data-name="Path 442" d="M365.529,337.067a7.129,7.129,0,1,0,7.129,7.129A7.136,7.136,0,0,0,365.529,337.067Zm0,11.882a4.753,4.753,0,1,1,4.753-4.753A4.757,4.757,0,0,1,365.529,348.949Z" transform="translate(-358.4 -337.067)" fill="#fff"/>
      </g>
    </g>
    <g id="Group_356" data-name="Group 356" transform="translate(45.151 85.603)">
      <g id="Group_355" data-name="Group 355" transform="translate(0 0)">
        <path id="Path_443" data-name="Path 443" d="M350.218,183.58l-10.694-16.634a1.188,1.188,0,0,0-1-.545h-13.07a1.188,1.188,0,0,0-1.188,1.188v29.7a1.187,1.187,0,0,0,1.188,1.188h4.753V196.1h-3.565V168.776h11.233l10.154,15.8V196.1h-5.941v2.376h7.129a1.187,1.187,0,0,0,1.188-1.188v-13.07A1.185,1.185,0,0,0,350.218,183.58Z" transform="translate(-324.267 -166.4)" fill="#fff"/>
      </g>
    </g>
    <g id="Group_358" data-name="Group 358" transform="translate(49.903 90.356)">
      <g id="Group_357" data-name="Group 357" transform="translate(0 0)">
        <path id="Path_444" data-name="Path 444" d="M360.777,211.227v-8.317h9.505v-2.376H359.589a1.188,1.188,0,0,0-1.188,1.188v10.694a1.187,1.187,0,0,0,1.188,1.188h17.823v-2.376H360.777Z" transform="translate(-358.401 -200.533)" fill="#fff"/>
      </g>
    </g>
    <g id="Group_360" data-name="Group 360" transform="translate(0 77.286)">
      <g id="Group_359" data-name="Group 359" transform="translate(0 0)">
        <path id="Path_445" data-name="Path 445" d="M46.339,106.667H1.188A1.189,1.189,0,0,0,0,107.855v38.021a1.188,1.188,0,0,0,1.188,1.188h9.505v-2.376H2.376V109.043H45.151v35.645H22.575v2.376H46.339a1.187,1.187,0,0,0,1.188-1.188V107.855A1.188,1.188,0,0,0,46.339,106.667Z" transform="translate(0 -106.667)" fill="#fff"/>
      </g>
    </g>
    <g id="Group_362" data-name="Group 362" transform="translate(1.188 110.554)">
      <g id="Group_361" data-name="Group 361">
        <rect id="Rectangle_362" data-name="Rectangle 362" width="7.129" height="2.376" fill="#fff"/>
      </g>
    </g>
    <g id="Group_364" data-name="Group 364" transform="translate(24.952 110.554)">
      <g id="Group_363" data-name="Group 363">
        <rect id="Rectangle_363" data-name="Rectangle 363" width="20.199" height="2.376" fill="#fff"/>
      </g>
    </g>
    <g id="Group_366" data-name="Group 366" transform="translate(65.349 110.554)">
      <g id="Group_365" data-name="Group 365">
        <rect id="Rectangle_364" data-name="Rectangle 364" width="4.753" height="2.376" fill="#fff"/>
      </g>
    </g>
    <g id="Group_368" data-name="Group 368" transform="translate(4.753 82.038)">
      <g id="Group_367" data-name="Group 367">
        <rect id="Rectangle_365" data-name="Rectangle 365" width="41.586" height="2.376" fill="#fff"/>
      </g>
    </g>
    <g id="Group_370" data-name="Group 370" transform="translate(15.446 115.307)">
      <g id="Group_369" data-name="Group 369" transform="translate(0 0)">
        <rect id="Rectangle_366" data-name="Rectangle 366" width="2.376" height="2.376" fill="#fff"/>
      </g>
    </g>
    <g id="Group_372" data-name="Group 372" transform="translate(55.844 115.307)">
      <g id="Group_371" data-name="Group 371" transform="translate(0 0)">
        <rect id="Rectangle_367" data-name="Rectangle 367" width="2.376" height="2.376" fill="#fff"/>
      </g>
    </g>
    <g id="Group_374" data-name="Group 374" transform="translate(4.753 72.533)">
      <g id="Group_373" data-name="Group 373" transform="translate(0 0)">
        <rect id="Rectangle_368" data-name="Rectangle 368" width="16.634" height="2.376" fill="#fff"/>
      </g>
    </g>
    <g id="Group_376" data-name="Group 376" transform="translate(0 72.533)">
      <g id="Group_375" data-name="Group 375" transform="translate(0 0)">
        <rect id="Rectangle_369" data-name="Rectangle 369" width="2.376" height="2.376" fill="#fff"/>
      </g>
    </g>
  </g>
</svg>
